<svg xmlns="http://www.w3.org/2000/svg" xmlns:xlink="http://www.w3.org/1999/xlink" width="326" height="226.499" viewBox="0 0 326 226.499">
  <defs>
    <linearGradient id="linear-gradient" x1="0.663" y1="0.034" x2="0.324" y2="0.627" gradientUnits="objectBoundingBox">
      <stop offset="0" stop-color="#f8d756"/>
      <stop offset="1" stop-color="#df7342"/>
    </linearGradient>
  </defs>
  <g id="default" transform="translate(-1990 469.75)">
    <path id="Subtraction_6" data-name="Subtraction 6" d="M136.805,136.9A69.079,69.079,0,0,0,49.9,83.426,69.528,69.528,0,0,1,48.5,69.5,69.035,69.035,0,0,1,69,20.356,70.18,70.18,0,0,1,183,42.448a69.188,69.188,0,0,1-6.283,65.659,69.744,69.744,0,0,1-39.91,28.793Z" transform="translate(2081 -469.75)" opacity="0.5" fill="url(#linear-gradient)"/>
    <path id="Subtraction_5" data-name="Subtraction 5" d="M255.423,208H97.463v-.213a103.8,103.8,0,0,1-54.747-19.808A104.961,104.961,0,0,1,28.329,175.29,103.737,103.737,0,0,1,17.793,45.853,104.467,104.467,0,0,1,63.632,8.173a104.293,104.293,0,0,1,138.72,60.908,77.3,77.3,0,0,1,89.566-2.226A77.406,77.406,0,0,1,319.925,100.8a77.2,77.2,0,0,1-64.5,106.907V208ZM159.212,62.726A68.651,68.651,0,0,0,120.65,74.5a69.162,69.162,0,0,0-24.987,30.343,68.88,68.88,0,0,0,6.358,65.406,69.162,69.162,0,0,0,30.344,24.987,68.881,68.881,0,0,0,65.407-6.358,69.177,69.177,0,0,0,24.988-30.344A68.872,68.872,0,0,0,216.4,93.133a69.162,69.162,0,0,0-30.344-24.987A68.538,68.538,0,0,0,159.212,62.726Zm-.353,125.267a56.022,56.022,0,0,1-44.58-22.178l96.134-55.5a55.947,55.947,0,0,1-51.555,77.681ZM106.97,152.969v0h0a55.925,55.925,0,0,1,76.765-71.029A56.323,56.323,0,0,1,202.9,97.582Z" transform="translate(1990 -451.25)" fill="#fff"/>
  </g>
</svg>
