<svg xmlns="http://www.w3.org/2000/svg" xmlns:xlink="http://www.w3.org/1999/xlink" width="326" height="274.155" viewBox="0 0 326 274.155">
  <defs>
    <linearGradient id="linear-gradient" x1="0.774" y1="0.11" x2="0.288" y2="1.042" gradientUnits="objectBoundingBox">
      <stop offset="0" stop-color="#fff"/>
      <stop offset="0.421" stop-color="#fff" stop-opacity="0.902"/>
      <stop offset="1" stop-color="#fff" stop-opacity="0.122"/>
    </linearGradient>
    <linearGradient id="linear-gradient-2" x1="0.705" y1="0.267" x2="0.5" y2="1" gradientUnits="objectBoundingBox">
      <stop offset="0" stop-color="#fff"/>
      <stop offset="0.067" stop-color="#fff" stop-opacity="0.902"/>
      <stop offset="0.639" stop-color="#fff" stop-opacity="0.749"/>
      <stop offset="1" stop-color="#fff" stop-opacity="0.451"/>
    </linearGradient>
  </defs>
  <g id="weather-condition-img-snowing" transform="translate(-1115 -393)">
    <path id="Union_13" data-name="Union 13" d="M7.061,104.208l1.8-5.637a1.262,1.262,0,0,0,.06-.365L7.271,99.851A.955.955,0,0,1,5.919,98.5L7.465,96.96a1.294,1.294,0,0,0-.17.041L1.631,98.728a1.249,1.249,0,0,1-.943-2.3l5.188-2.66a1.26,1.26,0,0,0,.364-.277H3.891a1.04,1.04,0,0,1,0-2.081H5.605L.688,88.886a1.249,1.249,0,0,1,.943-2.3l5.664,1.729a1.274,1.274,0,0,0,.416.056L5.922,86.582a.921.921,0,0,1,1.3-1.3l1.685,1.68a1.253,1.253,0,0,0-.05-.222L7.061,81.1a1.255,1.255,0,0,1,2.3-.965l2.692,5.02V83.3a1.046,1.046,0,1,1,2.092,0v2.48a1.255,1.255,0,0,0,.271-.346l2.839-5.3a1.255,1.255,0,0,1,2.3.965L17.79,86.657l1.382-1.378a.955.955,0,1,1,1.352,1.348l-1.733,1.729a1.277,1.277,0,0,0,.538-.046l5.664-1.729a1.25,1.25,0,0,1,.944,2.3l-4.919,2.521h1.715a1.04,1.04,0,0,1,0,2.081H20.385a1.272,1.272,0,0,0,.364.277l5.189,2.66a1.249,1.249,0,0,1-.944,2.3L19.329,97a1.273,1.273,0,0,0-.416-.057l1.607,1.6a.921.921,0,1,1-1.3,1.3l-1.5-1.5a1.281,1.281,0,0,0,.05.223l1.8,5.637a1.245,1.245,0,0,1-1.227,1.633,1.2,1.2,0,0,1-1.077-.668l-2.839-5.3a1.259,1.259,0,0,0-.271-.346v2.482a1.046,1.046,0,1,1-2.092,0v-1.86l-2.692,5.021a1.2,1.2,0,0,1-1.076.668A1.246,1.246,0,0,1,7.061,104.208ZM60.446,82.863l2.965-9.311a2.114,2.114,0,0,0,.1-.6l-2.717,2.717a1.575,1.575,0,0,1-2.228-2.228l2.547-2.548a2.345,2.345,0,0,0-.281.067L51.5,73.812a2.063,2.063,0,0,1-1.555-3.8l8.55-4.394a2.081,2.081,0,0,0,.6-.458H55.226a1.719,1.719,0,0,1,0-3.437h2.821l-8.1-4.164a2.063,2.063,0,0,1,1.555-3.8L60.832,56.6a2.1,2.1,0,0,0,.685.093L58.569,53.75A1.519,1.519,0,0,1,60.717,51.6l2.777,2.776a2.128,2.128,0,0,0-.083-.367L60.446,44.7a2.069,2.069,0,0,1,3.8-1.594L68.68,51.4V48.321a1.724,1.724,0,1,1,3.448,0v4.1a2.089,2.089,0,0,0,.446-.572L77.253,43.1a2.069,2.069,0,0,1,3.8,1.594L78.13,53.874,80.406,51.6a1.575,1.575,0,0,1,2.228,2.228L79.779,56.68a2.084,2.084,0,0,0,.887-.076L90,53.751a2.062,2.062,0,0,1,1.554,3.8l-8.1,4.164h2.82a1.719,1.719,0,0,1,0,3.437H82.406a2.085,2.085,0,0,0,.6.458l8.549,4.394A2.063,2.063,0,0,1,90,73.812l-9.334-2.855a2.115,2.115,0,0,0-.687-.093l2.651,2.65a1.519,1.519,0,1,1-2.148,2.147L78,73.184a2.11,2.11,0,0,0,.083.367l2.965,9.311a2.057,2.057,0,0,1-2.022,2.7,1.97,1.97,0,0,1-1.776-1.1L72.574,75.71a2.076,2.076,0,0,0-.446-.572v4.1a1.724,1.724,0,1,1-3.448,0V76.164l-4.436,8.293a1.97,1.97,0,0,1-1.775,1.1A2.057,2.057,0,0,1,60.446,82.863Zm62.814-5.339,2.137-6.707a1.48,1.48,0,0,0,.072-.424l-1.951,1.95a1.139,1.139,0,0,1-1.611-1.611l1.832-1.831a1.5,1.5,0,0,0-.2.047L116.811,71a1.486,1.486,0,0,1-1.121-2.74l6.162-3.164a1.484,1.484,0,0,0,.432-.33H119.5a1.237,1.237,0,1,1,0-2.475h2.035l-5.842-3a1.485,1.485,0,0,1,1.12-2.74l6.728,2.057a1.528,1.528,0,0,0,.5.067l-2.132-2.132a1.09,1.09,0,0,1,1.542-1.541l2.005,2.005a1.531,1.531,0,0,0-.06-.268l-2.137-6.707A1.491,1.491,0,0,1,126,48.889l3.2,5.972V52.646a1.243,1.243,0,1,1,2.486,0V55.6a1.486,1.486,0,0,0,.321-.411l3.372-6.3a1.491,1.491,0,0,1,2.738,1.147l-2.1,6.594L137.638,55a1.139,1.139,0,0,1,1.61,1.611L137.2,58.667a1.5,1.5,0,0,0,.638-.055l6.727-2.057a1.486,1.486,0,0,1,1.121,2.74l-5.841,3h2.034a1.237,1.237,0,1,1,0,2.475h-2.787a1.5,1.5,0,0,0,.432.33l6.162,3.164A1.486,1.486,0,0,1,144.56,71l-6.727-2.056a1.525,1.525,0,0,0-.5-.067l1.917,1.917a1.09,1.09,0,0,1-1.542,1.542l-1.789-1.789a1.584,1.584,0,0,0,.059.265l2.137,6.707a1.482,1.482,0,0,1-1.458,1.943,1.42,1.42,0,0,1-1.28-.8L132,72.372a1.482,1.482,0,0,0-.321-.41v2.953a1.243,1.243,0,1,1-2.486,0V72.7L126,78.672a1.421,1.421,0,0,1-1.28.8A1.482,1.482,0,0,1,123.26,77.524ZM36.63,54.5l-3.693-6.9a1.615,1.615,0,0,0-.352-.45v3.236a1.36,1.36,0,1,1-2.721,0V47.959l-3.5,6.543a1.632,1.632,0,0,1-3-1.257l2.34-7.348a1.647,1.647,0,0,0,.079-.475l-2.145,2.144a1.243,1.243,0,1,1-1.758-1.759l2.011-2.01a1.683,1.683,0,0,0-.222.051L16.306,46.1a1.628,1.628,0,0,1-1.228-3l6.747-3.467a1.632,1.632,0,0,0,.473-.362H19.248a1.356,1.356,0,1,1,0-2.712h2.226l-6.4-3.286a1.628,1.628,0,0,1,1.228-3l7.366,2.253a1.654,1.654,0,0,0,.541.074l-2.326-2.326a1.2,1.2,0,1,1,1.695-1.7l2.191,2.191a1.644,1.644,0,0,0-.066-.291l-2.34-7.348a1.632,1.632,0,0,1,3-1.258l3.5,6.545V25.988a1.36,1.36,0,1,1,2.721,0v3.237a1.607,1.607,0,0,0,.352-.451l3.693-6.9a1.632,1.632,0,0,1,3,1.258l-2.3,7.24,1.795-1.8a1.243,1.243,0,1,1,1.758,1.758l-2.253,2.254a1.635,1.635,0,0,0,.7-.06l7.365-2.253a1.628,1.628,0,0,1,1.228,3L41.521,36.56h2.225a1.356,1.356,0,0,1,0,2.712H40.7a1.64,1.64,0,0,0,.472.362L47.915,43.1a1.627,1.627,0,0,1-1.227,3l-7.366-2.253a1.651,1.651,0,0,0-.541-.072l2.091,2.091a1.2,1.2,0,0,1-1.695,1.695l-1.955-1.955a1.7,1.7,0,0,0,.065.29l2.339,7.348a1.622,1.622,0,0,1-1.595,2.129A1.556,1.556,0,0,1,36.63,54.5Zm83.376-21-3.693-6.9a1.65,1.65,0,0,0-.352-.451v3.237a1.36,1.36,0,1,1-2.721,0V26.959l-3.5,6.544a1.632,1.632,0,0,1-3-1.257l2.34-7.348a1.62,1.62,0,0,0,.078-.475l-2.144,2.144a1.243,1.243,0,0,1-1.758-1.759L107.27,22.8a1.844,1.844,0,0,0-.222.052L99.682,25.1a1.628,1.628,0,0,1-1.228-3l6.747-3.467a1.64,1.64,0,0,0,.472-.362h-3.05a1.356,1.356,0,1,1,0-2.712h2.226l-6.4-3.286a1.628,1.628,0,0,1,1.228-3l7.366,2.253a1.629,1.629,0,0,0,.541.073l-2.326-2.326a1.2,1.2,0,0,1,1.695-1.7l2.191,2.191a1.631,1.631,0,0,0-.065-.29l-2.34-7.348a1.632,1.632,0,0,1,3-1.258l3.5,6.545V4.988a1.36,1.36,0,1,1,2.721,0V8.225a1.65,1.65,0,0,0,.352-.451l3.693-6.9a1.632,1.632,0,0,1,3,1.258l-2.3,7.24,1.8-1.8a1.243,1.243,0,1,1,1.758,1.758L122,11.585a1.638,1.638,0,0,0,.7-.06l7.365-2.253a1.628,1.628,0,0,1,1.228,3L124.9,15.56h2.226a1.356,1.356,0,0,1,0,2.712h-3.05a1.64,1.64,0,0,0,.472.362l6.746,3.467a1.627,1.627,0,0,1-1.227,3L122.7,22.849a1.683,1.683,0,0,0-.542-.073l2.092,2.092a1.2,1.2,0,1,1-1.695,1.695L120.6,24.608a1.714,1.714,0,0,0,.065.29L123,32.245a1.623,1.623,0,0,1-1.6,2.129A1.556,1.556,0,0,1,120.006,33.5Z" transform="translate(1205 561.313)" fill="url(#linear-gradient)"/>
    <path id="export" d="M97.463,208v-.213A104.009,104.009,0,1,1,202.353,69.081a77.218,77.218,0,1,1,53.07,138.631V208Z" transform="translate(1115 393)" fill="url(#linear-gradient-2)"/>
  </g>
</svg>
